<?xml version="1.0" encoding="UTF-8"?>
<svg width="1024px" height="1024px" viewBox="0 0 1024 1024" version="1.1" xmlns="http://www.w3.org/2000/svg" xmlns:xlink="http://www.w3.org/1999/xlink">
    <title>Content</title>
    <g id="Content" stroke="none" fill="none" fill-rule="nonzero">
        <path d="M100,469.077637 L144.097656,469.077637 L144.097656,419.779785 L156.578125,419.779785 C156.924805,419.779785 157.271484,419.779785 157.618164,419.779785 C157.964844,419.779785 158.276855,419.779785 158.554199,419.779785 L182.26709,469.077637 L231.564941,469.077637 L203.067871,413.227539 C210.348145,409.691406 216.189697,404.040527 220.592529,396.274902 C224.995361,388.509277 227.196777,379.946289 227.196777,370.585938 L227.196777,370.37793 C227.196777,359.28418 224.908691,349.923828 220.33252,342.296875 C215.756348,334.669922 209.048096,328.880371 200.207764,324.928223 C191.367432,320.976074 180.499023,319 167.602539,319 L100,319 L100,469.077637 Z M144.097656,388.682617 L144.097656,351.553223 L162.506348,351.553223 C168.330566,351.553223 173.080078,353.269287 176.754883,356.701416 C180.429688,360.133545 182.26709,364.588379 182.26709,370.065918 L182.26709,370.273926 C182.26709,375.751465 180.464355,380.188965 176.858887,383.586426 C173.253418,386.983887 168.469238,388.682617 162.506348,388.682617 L144.097656,388.682617 Z M297.607422,471.57373 C307.591797,471.57373 315.998779,470.30835 322.828369,467.777588 C329.657959,465.246826 335.222168,461.988037 339.520996,458.001221 C343.819824,454.014404 347.113281,449.81958 349.401367,445.416748 C351.689453,441.013916 353.249512,436.94043 354.081543,433.196289 L354.393555,431.844238 L316.432129,431.844238 L316.328125,432.15625 C315.981445,433.265625 315.097412,434.617676 313.676025,436.212402 C312.254639,437.807129 310.295898,439.211182 307.799805,440.424561 C305.303711,441.637939 302.183594,442.244629 298.439453,442.244629 C294.417969,442.244629 290.98584,441.360596 288.143066,439.592529 C285.300293,437.824463 283.116211,435.276367 281.59082,431.948242 C280.06543,428.620117 279.302734,424.633301 279.302734,419.987793 L279.302734,403.347168 C279.302734,398.70166 280.048096,394.714844 281.538818,391.386719 C283.029541,388.058594 285.126953,385.510498 287.831055,383.742432 C290.535156,381.974365 293.724609,381.090332 297.399414,381.090332 C301.074219,381.090332 304.263672,381.974365 306.967773,383.742432 C309.671875,385.510498 311.769287,388.058594 313.26001,391.386719 C314.750732,394.714844 315.496094,398.70166 315.496094,403.347168 L315.496094,419.779785 L335.152832,397.106934 L258.501953,397.106934 L258.501953,421.23584 L354.913574,421.23584 L354.913574,409.171387 C354.913574,397.522949 352.50415,387.399902 347.685303,378.802246 C342.866455,370.20459 336.071533,363.54834 327.300537,358.833496 C318.529541,354.118652 308.181152,351.76123 296.255371,351.76123 C284.32959,351.76123 273.981201,354.15332 265.210205,358.9375 C256.439209,363.72168 249.661621,370.568604 244.877441,379.478271 C240.093262,388.387939 237.701172,399.083008 237.701172,411.563477 L237.701172,411.66748 C237.701172,424.078613 240.110596,434.773682 244.929443,443.752686 C249.748291,452.731689 256.629883,459.613281 265.574219,464.397461 C274.518555,469.181641 285.196289,471.57373 297.607422,471.57373 Z M367.914062,505.479004 L410.555664,505.479004 L410.555664,449.212891 L411.387695,449.212891 C413.19043,453.858398 415.721191,457.845215 418.97998,461.17334 C422.23877,464.501465 426.138916,467.066895 430.68042,468.869629 C435.221924,470.672363 440.266113,471.57373 445.812988,471.57373 C455.381348,471.57373 463.476318,469.233643 470.0979,464.553467 C476.719482,459.873291 481.746338,453.078369 485.178467,444.168701 C488.610596,435.259033 490.32666,424.425293 490.32666,411.66748 L490.32666,411.563477 C490.32666,398.736328 488.575928,387.86792 485.074463,378.958252 C481.572998,370.048584 476.476807,363.28833 469.785889,358.67749 C463.094971,354.06665 454.930664,351.76123 445.292969,351.76123 C439.884766,351.76123 434.961914,352.679932 430.524414,354.517334 C426.086914,356.354736 422.256104,359.006836 419.031982,362.473633 C415.807861,365.94043 413.294434,370.100586 411.491699,374.954102 L410.555664,374.954102 L410.555664,354.257324 L367.914062,354.257324 L367.914062,505.479004 Z M428.756348,437.252441 C425.012207,437.252441 421.770752,436.24707 419.031982,434.236328 C416.293213,432.225586 414.161133,429.313477 412.635742,425.5 C411.110352,421.686523 410.347656,417.110352 410.347656,411.771484 L410.347656,411.66748 C410.347656,406.259277 411.110352,401.648438 412.635742,397.834961 C414.161133,394.021484 416.310547,391.109375 419.083984,389.098633 C421.857422,387.087891 425.081543,386.08252 428.756348,386.08252 C432.431152,386.08252 435.637939,387.087891 438.376709,389.098633 C441.115479,391.109375 443.247559,394.021484 444.772949,397.834961 C446.29834,401.648438 447.061035,406.224609 447.061035,411.563477 L447.061035,411.66748 C447.061035,416.937012 446.315674,421.478516 444.824951,425.291992 C443.334229,429.105469 441.219482,432.052246 438.480713,434.132324 C435.741943,436.212402 432.500488,437.252441 428.756348,437.252441 Z M504.15918,469.077637 L546.800781,469.077637 L546.800781,319 L504.15918,319 L504.15918,469.077637 Z M598.074707,470.533691 C602.997559,470.533691 607.469727,469.875 611.491211,468.557617 C615.512695,467.240234 619.066162,465.298828 622.151611,462.733398 C625.237061,460.167969 627.854492,457.08252 630.003906,453.477051 L630.835938,453.477051 L630.835938,469.077637 L673.477539,469.077637 L673.477539,390.970703 C673.477539,383.205078 671.258789,376.375488 666.821289,370.481934 C662.383789,364.588379 656.178223,359.994873 648.20459,356.701416 C640.230957,353.407959 630.905273,351.76123 620.227539,351.76123 C609.064453,351.76123 599.47876,353.355957 591.470459,356.54541 C583.462158,359.734863 577.221924,364.224365 572.749756,370.013916 C568.277588,375.803467 565.729492,382.615723 565.105469,390.450684 L565.001465,391.802734 L603.066895,391.802734 L603.274902,390.762695 C603.760254,388.405273 605.216309,386.394531 607.643066,384.730469 C610.069824,383.066406 613.467285,382.234375 617.835449,382.234375 C622.203613,382.234375 625.462402,383.205078 627.611816,385.146484 C629.76123,387.087891 630.835938,389.722656 630.835938,393.050781 L630.835938,428.724121 C630.835938,431.220215 630.10791,433.473633 628.651855,435.484375 C627.195801,437.495117 625.185059,439.07251 622.619629,440.216553 C620.054199,441.360596 617.072754,441.932617 613.675293,441.932617 C609.723145,441.932617 606.568359,441.135254 604.210938,439.540527 C601.853516,437.945801 600.674805,435.657715 600.674805,432.67627 L600.674805,432.572266 C600.674805,429.729492 601.732178,427.441406 603.846924,425.708008 C605.96167,423.974609 609.272461,422.969238 613.779297,422.691895 L653.612793,419.883789 L653.612793,396.170898 L606.707031,399.291016 C596.514648,399.984375 587.882324,401.804443 580.810059,404.751221 C573.737793,407.697998 568.346924,411.736816 564.637451,416.867676 C560.927979,421.998535 559.073242,428.273438 559.073242,435.692383 L559.073242,435.796387 C559.073242,442.383301 560.719971,448.294189 564.013428,453.529053 C567.306885,458.763916 571.883057,462.906738 577.741943,465.95752 C583.60083,469.008301 590.378418,470.533691 598.074707,470.533691 Z M746.488281,471.57373 C758.206055,471.57373 768.225098,469.424316 776.54541,465.125488 C784.865723,460.82666 791.227295,454.985107 795.630127,447.60083 C800.032959,440.216553 802.234375,431.844238 802.234375,422.483887 L802.234375,421.859863 L763.440918,421.859863 L763.336914,422.899902 C762.851562,428.169434 761.204834,432.32959 758.396729,435.380371 C755.588623,438.431152 751.79248,439.956543 747.008301,439.956543 C743.26416,439.956543 740.109375,438.881836 737.543945,436.732422 C734.978516,434.583008 733.054443,431.393555 731.771729,427.164062 C730.489014,422.93457 729.847656,417.769043 729.847656,411.66748 L729.847656,411.563477 C729.847656,405.53125 730.506348,400.417725 731.82373,396.2229 C733.141113,392.028076 735.08252,388.838623 737.647949,386.654541 C740.213379,384.470459 743.333496,383.378418 747.008301,383.378418 C751.584473,383.378418 755.328613,384.921143 758.240723,388.006592 C761.152832,391.092041 762.851562,395.234863 763.336914,400.435059 L763.440918,401.475098 L802.234375,401.475098 L802.234375,400.851074 C802.234375,390.936035 799.894287,382.303711 795.214111,374.954102 C790.533936,367.604492 783.981689,361.901611 775.557373,357.845459 C767.133057,353.789307 757.339355,351.76123 746.17627,351.76123 C733.903809,351.76123 723.312744,354.15332 714.403076,358.9375 C705.493408,363.72168 698.62915,370.568604 693.810303,379.478271 C688.991455,388.387939 686.582031,399.04834 686.582031,411.459473 L686.582031,411.563477 C686.582031,424.043945 688.991455,434.773682 693.810303,443.752686 C698.62915,452.731689 705.510742,459.613281 714.455078,464.397461 C723.399414,469.181641 734.077148,471.57373 746.488281,471.57373 Z M871.812988,471.57373 C881.797363,471.57373 890.204346,470.30835 897.033936,467.777588 C903.863525,465.246826 909.427734,461.988037 913.726562,458.001221 C918.025391,454.014404 921.318848,449.81958 923.606934,445.416748 C925.89502,441.013916 927.455078,436.94043 928.287109,433.196289 L928.599121,431.844238 L890.637695,431.844238 L890.533691,432.15625 C890.187012,433.265625 889.302979,434.617676 887.881592,436.212402 C886.460205,437.807129 884.501465,439.211182 882.005371,440.424561 C879.509277,441.637939 876.38916,442.244629 872.64502,442.244629 C868.623535,442.244629 865.191406,441.360596 862.348633,439.592529 C859.505859,437.824463 857.321777,435.276367 855.796387,431.948242 C854.270996,428.620117 853.508301,424.633301 853.508301,419.987793 L853.508301,403.347168 C853.508301,398.70166 854.253662,394.714844 855.744385,391.386719 C857.235107,388.058594 859.33252,385.510498 862.036621,383.742432 C864.740723,381.974365 867.930176,381.090332 871.60498,381.090332 C875.279785,381.090332 878.469238,381.974365 881.17334,383.742432 C883.877441,385.510498 885.974854,388.058594 887.465576,391.386719 C888.956299,394.714844 889.70166,398.70166 889.70166,403.347168 L889.70166,419.779785 L909.358398,397.106934 L832.70752,397.106934 L832.70752,421.23584 L929.119141,421.23584 L929.119141,409.171387 C929.119141,397.522949 926.709717,387.399902 921.890869,378.802246 C917.072021,370.20459 910.2771,363.54834 901.506104,358.833496 C892.735107,354.118652 882.386719,351.76123 870.460938,351.76123 C858.535156,351.76123 848.186768,354.15332 839.415771,358.9375 C830.644775,363.72168 823.867188,370.568604 819.083008,379.478271 C814.298828,388.387939 811.906738,399.083008 811.906738,411.563477 L811.906738,411.66748 C811.906738,424.078613 814.316162,434.773682 819.13501,443.752686 C823.953857,452.731689 830.835449,459.613281 839.779785,464.397461 C848.724121,469.181641 859.401855,471.57373 871.812988,471.57373 Z M363.701904,723.077637 L402.18335,723.077637 L402.18335,636.130371 L422.672119,636.130371 L380.134521,577.160156 L436.400635,723.077637 L460.009521,723.077637 L516.275635,577.160156 L473.738037,636.130371 L494.226807,636.130371 L494.226807,723.077637 L532.708252,723.077637 L532.708252,573 L481.746338,573 L448.569092,662.339355 L447.841064,662.339355 L414.663818,573 L363.701904,573 L363.701904,723.077637 Z M608.111084,725.57373 C618.095459,725.57373 626.502441,724.30835 633.332031,721.777588 C640.161621,719.246826 645.72583,715.988037 650.024658,712.001221 C654.323486,708.014404 657.616943,703.81958 659.905029,699.416748 C662.193115,695.013916 663.753174,690.94043 664.585205,687.196289 L664.897217,685.844238 L626.935791,685.844238 L626.831787,686.15625 C626.485107,687.265625 625.601074,688.617676 624.179688,690.212402 C622.758301,691.807129 620.799561,693.211182 618.303467,694.424561 C615.807373,695.637939 612.687256,696.244629 608.943115,696.244629 C604.921631,696.244629 601.489502,695.360596 598.646729,693.592529 C595.803955,691.824463 593.619873,689.276367 592.094482,685.948242 C590.569092,682.620117 589.806396,678.633301 589.806396,673.987793 L589.806396,657.347168 C589.806396,652.70166 590.551758,648.714844 592.04248,645.386719 C593.533203,642.058594 595.630615,639.510498 598.334717,637.742432 C601.038818,635.974365 604.228271,635.090332 607.903076,635.090332 C611.577881,635.090332 614.767334,635.974365 617.471436,637.742432 C620.175537,639.510498 622.272949,642.058594 623.763672,645.386719 C625.254395,648.714844 625.999756,652.70166 625.999756,657.347168 L625.999756,673.779785 L645.656494,651.106934 L569.005615,651.106934 L569.005615,675.23584 L665.417236,675.23584 L665.417236,663.171387 C665.417236,651.522949 663.007812,641.399902 658.188965,632.802246 C653.370117,624.20459 646.575195,617.54834 637.804199,612.833496 C629.033203,608.118652 618.684814,605.76123 606.759033,605.76123 C594.833252,605.76123 584.484863,608.15332 575.713867,612.9375 C566.942871,617.72168 560.165283,624.568604 555.381104,633.478271 C550.596924,642.387939 548.204834,653.083008 548.204834,665.563477 L548.204834,665.66748 C548.204834,678.078613 550.614258,688.773682 555.433105,697.752686 C560.251953,706.731689 567.133545,713.613281 576.077881,718.397461 C585.022217,723.181641 595.699951,725.57373 608.111084,725.57373 Z" id="Combined-Shape" fill="#000000"></path>
    </g>
</svg>